<svg width="32" height="32" viewBox="0 0 32 32" fill="none" xmlns="http://www.w3.org/2000/svg">
<circle cx="16" cy="16" r="16" fill="white"/>
<path d="M23.4375 13.375H22.5662L20.76 8.40251C20.6105 7.99249 20.3388 7.6382 19.9816 7.38741C19.6244 7.13663 19.1989 7.00141 18.7625 7.00001H17.0625C16.4781 7.00001 16 7.47813 16 8.06251C16 8.64688 16.4781 9.12501 17.0625 9.12501H18.7625L20.3137 13.375H15.2031L14.8206 12.3125H14.9162C15.5006 12.3125 15.9787 11.8344 15.9787 11.25C15.9787 10.6656 15.5006 10.1875 14.9162 10.1875H11.75C11.1656 10.1875 10.6875 10.6656 10.6875 11.25C10.6875 11.8344 11.1656 12.3125 11.75 12.3125H12.5469L14.4806 17.625H13.7687C13.3012 15.2556 11.3144 13.5025 8.82812 13.3856C5.85312 13.2369 3.25 15.7125 3.25 18.6875C3.25 21.6625 5.5875 24 8.5625 24C11.1762 24 13.2906 22.2044 13.7687 19.75H18.2312C18.6987 22.1194 20.6856 23.8725 23.1719 23.9894C26.1469 24.1275 28.75 21.6625 28.75 18.6769C28.75 15.7125 26.4125 13.375 23.4375 13.375ZM9.625 19.75H11.5587C11.1125 21.0569 9.85875 21.96 8.35 21.8644C6.76687 21.7688 5.44937 20.43 5.375 18.8363C5.30062 16.9769 6.72437 15.5 8.5625 15.5C9.97562 15.5 11.1337 16.3819 11.5587 17.625H9.625C9.04062 17.625 8.5625 18.1031 8.5625 18.6875C8.5625 19.2719 9.04062 19.75 9.625 19.75ZM18.2312 17.625H16.7437L15.9681 15.5H19.1875C18.72 16.1163 18.38 16.8281 18.2312 17.625ZM23.31 21.875C21.6737 21.8113 20.2925 20.4194 20.25 18.7725C20.2287 17.7525 20.6644 16.86 21.3656 16.265L22.0244 18.0713C22.2262 18.6238 22.8319 18.9106 23.3844 18.7088C23.9369 18.5069 24.2237 17.9013 24.0219 17.3488L23.3525 15.5106L23.3631 15.5C23.7891 15.4855 24.2136 15.5574 24.611 15.7115C25.0084 15.8656 25.3705 16.0986 25.6754 16.3965C25.9802 16.6944 26.2215 17.051 26.3847 17.4448C26.548 17.8385 26.6297 18.2613 26.625 18.6875C26.625 20.515 25.1587 21.9388 23.31 21.875Z" fill="url(#paint0_linear)"/>
<defs>
<linearGradient id="paint0_linear" x1="16" y1="7.00001" x2="16" y2="24" gradientUnits="userSpaceOnUse">
<stop stop-color="#FFB60D"/>
<stop offset="1" stop-color="#E69317"/>
</linearGradient>
</defs>
</svg>
